<svg width="140" height="56" viewBox="0 0 140 56" fill="none" xmlns="http://www.w3.org/2000/svg">
<path d="M16.7725 13.5249C18.4243 13.5249 20.0876 14.0052 22.8768 15.2429V11.4943C20.4549 10.453 18.5068 10 16.3474 10C11.8734 10 9 12.2006 9 15.5242C9 19.6362 12.4954 20.8841 15.3155 21.8909C17.2224 22.5716 18.8205 23.1422 18.8205 24.4133C18.8205 25.5396 17.8242 26.1857 15.9768 26.1857C13.8463 26.1857 12.1557 25.5396 9.39374 23.7103V27.8508L9.44189 27.8757C11.3368 28.8539 12.9996 29.7123 16.3474 29.7123C20.6514 29.7123 23.7493 27.5678 23.7493 23.877C23.7493 19.8388 20.1748 18.5333 17.3388 17.4975C15.4742 16.8165 13.9288 16.2521 13.9288 15.1042C13.9288 14.1454 15.0391 13.5249 16.7725 13.5249Z" fill="white"/>
<path d="M32.2244 29.709C33.6054 29.709 34.9897 29.426 36.6266 28.8327V25.8903C34.8205 26.5661 33.943 26.7922 32.9557 26.7922C30.6164 26.7922 29.0637 25.2731 29.0637 22.9652C29.0637 20.6895 30.6428 19.215 33.0977 19.215C34.1139 19.215 35.3554 19.5269 36.4276 20.0963V17.0516C35.073 16.5474 33.3792 16.2083 32.0543 16.2083C27.7652 16.2083 24.6937 19.0178 24.6937 22.995C24.6937 27.0463 27.6505 29.709 32.2244 29.709Z" fill="white"/>
<path fill-rule="evenodd" clip-rule="evenodd" d="M74.8297 16.2124C70.8163 16.2124 67.9594 19.0459 67.9594 23.0329C67.9594 27.0496 70.9303 29.709 75.5091 29.709C76.5236 29.709 78.9769 29.709 81.3138 27.9804V25.4382C79.3995 26.8013 78.1332 27.2708 76.4988 27.2708C73.9193 27.2708 72.3418 25.9365 72.199 23.6592H81.5441C81.738 18.9056 78.6161 16.2124 74.8297 16.2124ZM72.2865 21.5031C72.4541 19.6961 73.5041 18.6515 75.1121 18.6515C76.6928 18.6515 77.7643 19.7258 77.9335 21.5031H72.2865Z" fill="white"/>
<path d="M87.2111 29.4722H83.1249V16.4525H87.2111V29.4722Z" fill="white"/>
<path fill-rule="evenodd" clip-rule="evenodd" d="M98.5816 10.2401V17.0235C97.478 16.4896 96.3777 16.2083 95.1882 16.2083C91.4612 16.2083 88.8825 18.9617 88.8825 22.9463C88.8825 26.845 91.4612 29.7123 94.9579 29.7123C96.3446 29.7123 97.4161 29.3492 98.5816 28.4202V29.4681H102.667V10.2401H98.5816ZM98.5816 25.9134C97.7306 26.6791 97.0232 26.9861 96.1507 26.9861C94.2265 26.9861 93.009 25.4035 93.009 23.0312C93.009 20.4321 94.2265 18.9337 96.286 18.9337C97.0232 18.9337 97.9857 19.2728 98.5816 19.6977V25.9134Z" fill="white"/>
<path fill-rule="evenodd" clip-rule="evenodd" d="M104.391 23.0329C104.391 19.0459 107.243 16.2124 111.256 16.2124C115.04 16.2124 118.165 18.9056 117.971 23.6592H108.63C108.773 25.9365 110.357 27.2708 112.922 27.2708C114.564 27.2708 115.833 26.8013 117.75 25.4382V27.9804C115.407 29.709 112.949 29.709 111.936 29.709C107.362 29.709 104.391 27.0496 104.391 23.0329ZM111.535 18.6515C109.929 18.6515 108.885 19.6961 108.715 21.5031H114.369C114.2 19.7258 113.118 18.6515 111.535 18.6515Z" fill="white"/>
<path d="M124.088 20.1804H124.148C125.36 17.4707 126.718 16.2 128.294 16.2C129.111 16.2 129.815 16.5111 131 17.3874L129.876 20.9973C128.803 20.3207 128.098 20.0377 127.45 20.0377C125.951 20.0377 124.991 21.4503 124.088 23.8382V29.4549H119.997V16.4385H124.088V20.1804Z" fill="white"/>
<path d="M85.8645 14.124C87.0953 13.3979 87.7862 11.9869 87.4024 10.9753C87.0152 9.96125 85.7085 9.73021 84.4761 10.4596C83.242 11.1816 82.5544 12.5942 82.9424 13.6075C83.3229 14.6191 84.6288 14.8493 85.8645 14.124Z" fill="white"/>
<path d="M51.3437 21.1854C51.3437 17.6572 48.9449 16.2124 46.5775 16.2124C44.9678 16.2124 43.6446 16.8915 42.4609 18.3891H42.4048V10.2401H38.3146V29.4342H42.4048V21.1854C43.3615 19.8017 44.1787 19.2101 45.1371 19.2101C46.4091 19.2101 47.2544 20.1144 47.2544 22.0593V26.6329C48.6263 25.9283 50.0205 25.4959 51.3437 25.335V21.1854Z" fill="white"/>
<path d="M57.3629 18.3157C58.6647 16.8271 59.9367 16.2083 61.6025 16.2083C63.6356 16.2083 66.3448 17.361 66.3448 21.1954V29.4384H62.2555V21.5337C62.2555 19.6977 61.3755 18.9337 60.2174 18.9337C59.2004 18.9337 58.4377 19.4708 57.3629 21.0831V27.1635C56.4979 26.0908 54.6909 25.4415 53.2744 25.3004V16.4525H57.3629V18.3157Z" fill="white"/>
<path d="M68.6032 33.177H63.8519V36.5518H68.4357V37.9999H63.8519V41.4811H68.7452V42.9276H62.2587V31.7322H68.6032V33.177Z" fill="white"/>
<path d="M73.9392 42.9342H72.4838V31.7289H73.9392V42.9342Z" fill="white"/>
<path fill-rule="evenodd" clip-rule="evenodd" d="M79.1312 39.4562H84.3159C84.3159 36.7242 83.067 35.4057 81.1115 35.4057C79.0825 35.4057 77.6734 36.905 77.6734 39.1411C77.6734 41.1849 78.9463 43.072 81.2378 43.072C82.4867 43.072 83.294 42.7947 84.188 42.2015V40.7855C83.3245 41.3507 82.4867 41.6767 81.6051 41.6767C80.1952 41.6767 79.3582 40.9209 79.1312 39.4562ZM81.1445 36.6582C82.1763 36.6582 82.8161 37.3687 82.8639 38.4851H79.1576C79.3582 37.3192 80.0293 36.6582 81.1445 36.6582Z" fill="white"/>
<path d="M91.7864 36.7441C92.4236 36.7441 92.9825 36.9124 93.8195 37.485V35.914C93.1154 35.6046 92.5408 35.4057 91.6865 35.4057C89.4503 35.4057 88.0528 36.9487 88.0528 39.3919C88.0528 41.557 89.5824 43.072 91.7864 43.072C92.5573 43.072 93.4918 42.8797 93.9821 42.6487V41.2138C93.2483 41.5422 92.6539 41.7039 92.0299 41.7039C90.5135 41.7039 89.5312 40.7855 89.5312 39.2615C89.5312 37.7656 90.4541 36.7441 91.7864 36.7441Z" fill="white"/>
<path d="M100.45 35.5468H102.786V36.8579H100.45V40.6469C100.45 41.5141 101.079 41.765 101.503 41.765C102.03 41.765 102.573 41.581 103.162 41.2171V42.5818C102.651 42.8632 101.867 43.072 101.387 43.072C99.8016 43.072 99.0001 42.0884 99.0001 40.7567V36.8579H97.7165V36.6954L100.45 34.0211V35.5468Z" fill="white"/>
<path d="M108.352 37.2556V35.5468H106.898V42.9342H108.352V39.0825C108.352 37.8209 109.138 36.8026 110.14 36.8026C110.486 36.8026 111.059 37.1046 111.503 37.5428L112.274 36.2605C111.664 35.6838 111.109 35.4057 110.516 35.4057C109.829 35.4057 109.124 35.9478 108.381 37.2556H108.352Z" fill="white"/>
<path d="M127.187 37.485C126.346 36.9124 125.788 36.7441 125.147 36.7441C123.818 36.7441 122.902 37.7656 122.902 39.2615C122.902 40.7855 123.885 41.7039 125.393 41.7039C126.017 41.7039 126.608 41.5422 127.352 41.2138V42.6487C126.851 42.8797 125.916 43.072 125.147 43.072C122.946 43.072 121.41 41.557 121.41 39.3919C121.41 36.9487 122.814 35.4057 125.05 35.4057C125.906 35.4057 126.475 35.6046 127.187 35.914V37.485Z" fill="white"/>
<path d="M117.587 42.9342H116.132V35.547H117.587V42.9342Z" fill="white"/>
<path d="M117.636 32.8932C117.778 33.2496 117.529 33.7538 117.092 34.0104C116.651 34.2679 116.185 34.1853 116.052 33.8281C115.919 33.4675 116.16 32.9675 116.602 32.71C117.039 32.4493 117.503 32.5326 117.636 32.8932Z" fill="white"/>
<path fill-rule="evenodd" clip-rule="evenodd" d="M53.8259 34.9048L53.3842 36.5056H57.358C57.1665 37.0147 56.9213 37.518 56.6547 38.0271H53.0194L52.5456 39.6279H55.6551C55.0748 40.4472 54.4326 41.2451 53.655 41.9844C49.2123 46.2347 43.2641 47.224 40.4476 44.4095C38.9981 42.9581 38.6308 40.6725 39.2069 38.2219H42.5765L43.1254 36.6178H39.6964C39.8945 36.1087 40.1537 35.607 40.4303 35.1012H43.3218L43.8848 33.4972H41.4646C41.9986 32.7678 42.5847 32.054 43.2789 31.3939C47.724 27.1429 53.6905 26.1742 56.5425 29.025C57.9515 30.4335 58.342 32.5838 57.8459 34.9048H53.8259ZM52.0231 33.6498C52.1279 33.5327 52.236 33.4906 52.4927 33.4906H54.8833L55.3893 31.1522H51.432C48.6535 31.1522 46.8185 33.0698 46.5147 34.8058L45.4846 39.1287C45.4738 39.2442 45.3946 39.3564 45.3335 39.4282C45.1676 39.613 44.9695 39.7071 44.7161 39.7071H42.2339L41.5636 42.2493H45.4276C48.2069 42.2493 50.3391 40.5165 50.6453 38.7813L51.9504 33.8338C51.9653 33.7414 51.9818 33.6952 52.0231 33.6498Z" fill="white"/>
</svg>
